<svg version="1.1" id="Layer_1" xmlns="http://www.w3.org/2000/svg" xmlns:xlink="http://www.w3.org/1999/xlink" x="0px" y="0px"
	 width="100%" viewBox="0 0 1024 1024" enable-background="new 0 0 1024 1024" xml:space="preserve">
<path fill="#ffffffff" opacity="1.000000" stroke="none" 
	d="
M589.854736,827.137878 
	C585.404724,848.686157 581.023438,869.869324 576.655701,891.055237 
	C575.178345,898.221130 573.380798,905.344604 572.369019,912.576843 
	C571.185364,921.038513 574.582886,928.954712 576.381165,937.034729 
	C577.969666,944.171875 579.987366,951.219177 581.405151,958.387390 
	C583.685913,969.918213 578.581970,975.957520 566.845032,975.989563 
	C562.348938,976.001831 557.838867,976.057068 553.359070,975.747498 
	C545.459229,975.201477 540.712952,970.597656 538.063782,963.375671 
	C531.171753,944.587280 530.959351,925.815125 536.890442,906.643188 
	C543.840332,884.177734 547.241638,860.932495 550.739929,837.727966 
	C554.036499,815.861084 557.772644,794.046326 559.535095,771.991089 
	C560.209778,763.548584 559.768738,755.007690 559.640686,746.514526 
	C559.582886,742.682190 556.696777,743.055786 554.170654,743.589050 
	C547.334412,745.032410 540.558472,746.776306 533.700500,748.099426 
	C508.392120,752.982178 482.929138,754.362183 457.220886,751.800842 
	C431.282013,749.216614 405.946167,743.776428 381.052277,736.274841 
	C375.590515,734.628906 373.586853,737.281250 371.183380,741.005188 
	C358.484772,760.680542 342.749847,777.455383 323.386627,790.761292 
	C317.013794,795.140564 310.097321,798.406311 302.885803,800.982117 
	C294.239044,804.070618 290.569214,810.105591 289.920410,819.069946 
	C288.701599,835.910339 291.203613,852.624390 291.045593,869.392578 
	C290.912384,883.525146 289.737854,897.642395 289.866730,911.802063 
	C289.923035,917.987549 291.292511,923.589478 294.441803,928.908997 
	C299.863220,938.066284 305.471527,947.146851 308.513916,957.490173 
	C310.868866,965.496460 307.516266,970.157104 299.116638,970.289673 
	C293.112091,970.384460 287.173279,970.054749 281.272217,968.550049 
	C277.168915,967.503723 274.312195,965.274109 272.706879,961.598938 
	C268.030426,950.892334 262.568268,940.642883 256.173462,930.851746 
	C251.508820,923.709778 251.993927,915.677673 252.945786,907.623291 
	C255.841293,883.122131 257.148102,858.531860 255.601273,833.896484 
	C255.218552,827.801208 254.889954,821.453613 252.675552,815.054626 
	C250.619141,817.462830 251.629776,819.690552 251.528305,821.728516 
	C250.337112,845.656738 250.211746,869.641479 247.813934,893.504456 
	C247.148849,900.123352 246.555771,906.800293 245.149323,913.281311 
	C243.301758,921.795105 245.584244,929.392822 248.879501,936.953979 
	C251.670288,943.357544 254.790680,949.620605 256.745148,956.370483 
	C259.261353,965.060364 255.168472,970.872864 246.062408,971.174866 
	C238.567734,971.423462 231.088806,971.187805 223.642471,970.093262 
	C216.501831,969.043579 214.223297,963.692993 213.043762,957.814697 
	C210.786591,946.565979 208.560028,935.281372 207.131561,923.909790 
	C206.503937,918.913452 208.167831,913.727295 209.400711,908.708618 
	C211.900558,898.532837 215.610107,888.612183 216.710037,878.143799 
	C217.909592,866.727417 216.890305,855.252136 216.495026,843.824463 
	C215.843811,824.997986 215.580734,806.168152 216.201874,787.358093 
	C216.644928,773.940369 222.733551,764.177307 236.128052,759.184387 
	C247.133621,755.081970 252.374527,745.420227 255.944519,734.820984 
	C256.262909,733.875671 256.277313,732.786926 256.748535,731.940491 
	C263.292694,720.186218 259.981812,709.411316 253.298981,699.143433 
	C245.517624,687.187683 242.769562,674.160461 243.991379,660.090759 
	C244.225967,657.389465 245.053299,654.891846 245.670074,652.307922 
	C247.541519,644.467773 247.184738,643.916321 239.322525,642.510803 
	C236.052597,641.926147 232.791199,641.596741 229.650421,640.231140 
	C215.635117,634.137268 208.091232,622.318298 202.293182,609.147156 
	C199.896942,603.703735 198.578537,597.778442 196.868942,592.042847 
	C195.893478,588.770203 197.129166,586.381958 200.654205,586.819702 
	C218.539841,589.040710 235.532974,582.943970 253.011139,581.431396 
	C262.820374,580.582397 271.525787,582.729492 278.857819,589.269653 
	C281.236664,591.391602 282.612976,591.434814 285.109680,589.490845 
	C308.122803,571.572388 334.481537,565.101624 363.288025,566.478149 
	C385.977783,567.562439 408.119812,572.329773 430.498383,575.521545 
	C453.057526,578.739136 475.598022,583.086060 498.530212,579.905090 
	C520.538452,576.852234 540.299072,569.195496 552.777466,549.357849 
	C563.005066,533.098450 568.884705,515.131714 572.037231,496.196167 
	C576.000122,472.393433 577.474121,448.249695 582.010010,424.533630 
	C582.914307,419.805481 583.870789,415.058319 585.272400,410.463043 
	C586.484009,406.490601 585.931763,404.216888 581.499939,403.134949 
	C574.212341,401.355804 567.067200,399.094604 560.906982,394.512482 
	C547.006470,384.172943 540.707642,369.792786 538.817932,353.073334 
	C538.463074,349.933868 538.119385,346.765778 538.157104,343.615540 
	C538.217957,338.534485 539.686096,337.241577 544.637756,338.226807 
	C555.469910,340.382172 565.700928,344.291534 575.504517,349.367706 
	C577.209717,350.250610 578.816345,351.625916 581.249939,351.302124 
	C581.982056,347.260773 579.239258,344.371002 577.735718,341.265045 
	C564.444214,313.807953 537.430176,302.045868 513.425598,304.444977 
	C496.975952,306.088989 481.178131,311.052155 465.087799,314.540436 
	C445.464172,318.794678 426.035950,324.071808 405.637421,324.087494 
	C375.212250,324.110870 348.010162,314.653748 323.461029,297.275604 
	C295.361328,277.384033 274.385040,251.026031 256.742889,221.824371 
	C249.845734,210.408066 244.250259,198.312149 238.956177,186.087250 
	C238.246765,184.449142 238.009354,182.542755 237.865311,180.735733 
	C237.441833,175.423141 239.587326,171.759445 243.752411,170.342804 
	C248.814148,168.621155 253.363068,170.148041 256.028076,175.142059 
	C260.649353,183.801895 264.593842,192.832443 269.403412,201.380478 
	C285.162384,229.388977 304.763855,254.298767 330.938904,273.307709 
	C355.405334,291.075836 382.921844,299.864777 413.358948,298.542755 
	C416.877533,298.389923 420.581848,298.625702 424.559814,296.183105 
	C415.157837,290.676117 406.332062,285.457153 397.456696,280.323944 
	C390.540344,276.323792 383.547119,272.479889 376.130585,269.430695 
	C356.323822,261.287354 341.394684,247.506851 330.146210,229.468933 
	C326.004456,222.827271 321.652618,216.316406 317.382416,209.755127 
	C315.553772,206.945389 314.163879,203.981033 313.319427,200.697968 
	C312.369965,197.006683 313.810822,194.427551 316.807343,192.753174 
	C319.896210,191.027191 322.665680,192.099030 324.700500,194.825821 
	C326.889221,197.758850 329.049164,200.728409 330.997192,203.823303 
	C337.681000,214.442001 345.959961,223.814545 354.004303,233.360657 
	C358.566650,238.774704 364.172455,242.828339 372.160431,245.154175 
	C370.475952,241.641098 369.235718,238.861450 367.834839,236.165268 
	C360.535400,222.116379 354.074799,207.709290 349.087158,192.665543 
	C348.930054,192.191757 348.734070,191.729782 348.596863,191.250656 
	C346.395844,183.564774 348.048004,178.013168 353.256073,175.570740 
	C358.000702,173.345642 363.235382,175.734375 367.037872,183.110168 
	C374.278107,197.154236 380.631744,211.659988 388.011566,225.626343 
	C398.363220,245.217056 411.747131,262.310028 431.840240,272.888184 
	C442.743042,278.628052 454.536865,280.975464 466.757721,280.539368 
	C467.746674,278.314880 466.276764,277.340881 465.381622,276.288208 
	C453.980011,262.879944 449.254272,246.195526 442.851593,230.347229 
	C441.610809,227.275925 442.323303,224.228989 445.464203,222.578918 
	C448.406433,221.033203 451.242432,221.662384 453.680878,224.047470 
	C455.636688,225.960480 456.826324,228.342270 457.983551,230.733627 
	C461.765778,238.549515 466.736298,245.663254 471.066742,253.147446 
	C478.231140,265.529419 488.813324,271.484985 502.857147,272.371704 
	C510.177185,272.833893 517.442444,272.694458 524.894897,272.598724 
	C525.539551,268.972992 523.517517,266.543579 522.351257,263.931885 
	C515.771423,249.197189 508.919586,234.589981 502.506348,219.773346 
	C495.002991,202.438141 482.089935,189.755005 466.344421,179.497131 
	C443.570038,164.660049 421.591675,148.664795 402.431763,129.252090 
	C388.424469,115.059975 379.983826,97.604988 375.006256,78.413605 
	C374.800079,77.618675 374.863800,76.757324 374.752625,75.933556 
	C374.193298,71.790070 375.602356,68.533226 379.606598,67.129288 
	C383.478790,65.771652 385.915100,68.335617 387.769196,71.272781 
	C392.123108,78.169876 396.250763,85.210838 400.653992,92.075554 
	C408.530487,104.355148 417.687042,115.507027 429.705658,124.037170 
	C430.352814,124.496483 431.040344,124.898865 432.608704,125.904724 
	C430.564331,118.845665 428.487488,112.807213 427.085510,106.615929 
	C423.261383,89.728355 422.216949,72.719200 426.035065,55.657074 
	C426.936218,51.630020 428.941925,48.084667 433.675446,48.695011 
	C438.184235,49.276382 439.575012,53.034622 440.000244,57.143055 
	C441.452881,71.178513 441.947388,85.310928 445.175446,99.153595 
	C450.171143,120.576370 461.445007,137.826553 478.289703,151.848846 
	C488.132904,160.042755 497.344330,168.995422 506.848724,177.597031 
	C507.698822,178.366394 508.474792,179.300613 509.891602,179.330688 
	C511.846741,178.549820 511.936646,176.538849 512.479919,174.862564 
	C514.120178,169.801819 515.418762,164.613220 517.343872,159.666443 
	C519.559021,153.974289 519.161194,148.676041 516.548096,143.279816 
	C509.221161,128.149582 502.120972,112.911140 497.576752,96.656464 
	C495.882904,90.597443 493.611694,84.626823 493.967651,78.137718 
	C494.159668,74.637177 495.429077,71.745415 498.979218,70.943886 
	C502.669525,70.110710 504.939178,72.366768 506.160187,75.676254 
	C512.386963,92.553146 520.057983,108.805923 527.509644,125.153305 
	C528.117798,126.487434 528.482361,128.001938 530.213562,129.141006 
	C534.188110,123.939514 535.669312,117.565735 538.384033,111.820633 
	C544.253845,99.398552 547.138123,86.018776 550.591736,72.828789 
	C551.314453,70.068626 552.014832,67.219833 554.154602,65.265762 
	C556.705994,62.935867 559.560425,61.626434 563.248657,63.397358 
	C567.969238,65.663986 569.080078,69.639053 568.693054,74.163780 
	C566.820007,96.059326 560.425354,116.837433 552.777954,137.290680 
	C552.218628,138.786652 551.094910,140.193375 552.100769,142.690094 
	C560.800476,136.644226 568.190491,129.702850 573.893982,121.044090 
	C578.198547,114.509148 582.232483,107.795815 586.543152,101.265091 
	C588.145630,98.837334 590.550476,97.590492 593.449951,99.142563 
	C596.199219,100.614220 597.564209,102.964867 596.992371,106.185516 
	C596.905884,106.672691 596.677429,107.133003 596.540527,107.613129 
	C592.376709,122.215782 584.268311,134.439880 573.858643,145.283997 
	C566.248718,153.211563 557.646606,160.153152 550.539185,168.572922 
	C532.695984,189.710846 530.878418,213.210510 540.718079,238.209030 
	C548.835327,258.831573 562.641357,275.344666 579.127991,289.751984 
	C587.193604,296.800354 594.236938,304.768402 601.167480,312.872406 
	C602.439819,314.360199 603.389160,316.204132 605.869324,317.249725 
	C609.270996,310.263184 609.900085,302.297424 613.673828,294.793945 
	C631.792480,302.500885 636.656311,318.711700 640.670044,335.107605 
	C641.642273,335.052795 642.141052,335.160767 642.254395,334.998871 
	C649.682556,324.389648 658.110779,314.282288 662.089417,301.725037 
	C666.417725,288.064270 662.536682,275.380951 655.700745,263.486511 
	C648.026611,250.133621 637.337524,238.977783 628.246704,226.652145 
	C624.894470,222.107025 621.358276,217.698578 619.412415,212.253815 
	C618.073975,208.508759 618.348267,205.195602 621.760803,202.969604 
	C625.084778,200.801331 628.168762,202.060638 630.682678,204.789078 
	C638.129150,212.870956 645.540405,220.985184 652.971924,229.080826 
	C654.190002,230.407730 655.238403,231.935013 657.476624,232.911148 
	C656.665588,225.653534 653.932983,219.356384 651.358215,213.021042 
	C646.656067,201.451172 639.727783,190.908081 635.618835,179.068802 
	C633.818359,173.880951 632.116821,168.640091 631.862488,163.085114 
	C631.786682,161.429062 631.662231,159.700806 632.030029,158.114594 
	C632.765137,154.944061 634.764099,152.614334 638.132812,152.385712 
	C641.295288,152.171066 642.723083,154.590332 643.714172,157.214554 
	C646.579041,164.800522 649.441284,172.387466 652.716003,181.064072 
	C655.630432,173.101837 655.981079,165.783310 657.970703,158.874512 
	C658.567200,156.803238 659.179199,154.701065 660.107422,152.768341 
	C661.835449,149.170532 664.092957,145.664413 668.822571,147.271820 
	C673.513184,148.865952 674.159790,153.006500 673.130798,157.200348 
	C671.968811,161.935791 672.177856,166.815613 671.196777,171.524078 
	C669.698730,178.713684 670.899414,185.758636 671.992126,192.788345 
	C673.500488,202.491989 676.255188,211.913971 679.121033,221.292938 
	C679.398071,222.199722 679.493103,223.305771 680.945496,223.740158 
	C682.731323,216.379288 684.272217,208.967331 686.359436,201.712601 
	C688.610229,193.889648 691.335388,186.201447 693.926270,178.478836 
	C695.328247,174.299683 697.798279,171.313568 702.742920,172.342468 
	C706.126404,173.046539 708.068481,177.386368 707.010986,182.381485 
	C705.255066,190.675629 703.187988,198.904419 701.217529,207.152512 
	C697.191345,224.006180 694.547363,241.056137 694.050354,258.397003 
	C693.716736,270.038055 693.517212,281.682983 693.284729,293.326721 
	C693.268616,294.132660 693.477356,294.943085 693.552917,295.529388 
	C694.744934,296.577454 695.685608,296.047852 696.530212,295.570282 
	C711.320496,287.207428 726.072449,278.853516 738.674744,267.163269 
	C748.866150,257.709412 754.002319,246.455551 755.013611,232.518127 
	C756.516968,211.801086 756.955811,190.980835 760.078003,170.396576 
	C760.499573,167.617035 761.130310,164.806564 762.140015,162.194351 
	C763.479797,158.728409 766.010437,155.911545 770.008972,156.518799 
	C774.229492,157.159790 775.966003,160.580261 775.976685,164.611343 
	C776.016907,179.776550 776.043457,194.943436 775.859314,210.107056 
	C775.709656,222.434723 774.379028,234.660400 771.884338,246.751297 
	C771.601318,248.123032 770.803528,249.613800 772.339539,251.434586 
	C777.992249,247.597168 782.636414,242.662491 786.901794,237.457382 
	C798.518250,223.281586 805.452515,206.790039 810.085510,189.219711 
	C811.188232,185.037796 812.318909,180.862579 814.308167,176.978302 
	C816.280884,173.126175 819.290894,171.144821 823.653870,172.064011 
	C827.943054,172.967636 829.373779,176.379715 829.821716,180.200928 
	C830.378296,184.948456 828.702271,189.412506 827.451538,193.875198 
	C822.052063,213.141235 815.925171,232.132492 804.786011,249.033005 
	C794.896790,264.037079 780.707764,274.161377 765.610229,283.230255 
	C757.363708,288.183777 749.150513,293.192749 740.626038,298.356201 
	C742.369812,300.294556 744.161804,299.673126 745.834656,299.430084 
	C756.856445,297.828674 767.910889,296.412384 778.881897,294.515076 
	C787.164734,293.082672 794.559021,289.116241 801.884277,285.153320 
	C804.667542,283.647614 807.418640,282.081421 810.166626,280.511810 
	C813.635864,278.530273 817.043945,277.667816 820.037476,281.255127 
	C823.182922,285.024536 820.976440,288.269653 818.539917,291.052521 
	C809.220520,301.696259 796.904724,307.423584 783.749451,311.623871 
	C769.497009,316.174469 754.731506,317.805603 739.908447,317.842621 
	C704.990906,317.929840 681.956116,336.882843 663.961182,364.357361 
	C662.167908,367.095398 662.474548,368.943542 665.039490,371.112823 
	C677.149109,381.354462 689.341187,390.881805 705.311768,395.201599 
	C720.118164,399.206512 725.892029,412.085205 721.509827,426.592468 
	C719.633789,432.803345 715.425415,436.514435 709.135437,437.473083 
	C702.237610,438.524414 695.311462,439.285339 688.273865,439.281708 
	C678.272766,439.276520 669.360107,441.914032 664.861389,452.131805 
	C663.038269,456.272766 662.347107,460.682800 661.981628,465.207611 
	C660.056946,489.036072 667.394226,510.377441 678.620239,530.951782 
	C689.339905,550.598145 698.081421,571.182251 701.134155,593.549561 
	C704.827881,620.613037 700.696960,646.632507 688.538025,671.232056 
	C683.808044,680.801575 678.433472,690.005676 672.068481,698.575439 
	C661.124817,713.309814 659.049438,730.566650 657.116394,748.061340 
	C655.116577,766.161011 657.125244,783.964111 660.263123,801.632263 
	C662.203674,812.558472 665.721191,823.212463 668.674561,833.949097 
	C673.571472,851.750854 677.893921,869.664551 680.088379,888.035522 
	C682.482971,908.081299 686.357178,927.768677 694.583008,946.364136 
	C696.478027,950.648010 697.692993,955.131042 698.829346,959.649353 
	C700.948730,968.076721 697.484741,973.743713 688.895508,975.374939 
	C684.326599,976.242554 679.681519,976.862000 675.042480,977.179260 
	C661.112854,978.131775 645.027283,963.480347 644.107361,948.466248 
	C643.518188,938.850342 643.497742,929.126282 644.200256,919.522217 
	C645.172668,906.229126 642.391479,893.727905 637.917725,881.466431 
	C632.724121,867.231995 628.620422,852.670776 624.634399,838.079834 
	C619.461670,819.144226 615.187622,799.987183 611.381348,780.731384 
	C610.317322,775.348328 609.609558,769.895142 608.718567,764.477417 
	C608.436157,762.760315 608.089478,761.053772 607.228699,759.345337 
	C599.957336,781.532959 595.123474,804.199707 589.854736,827.137878 
z"/>
</svg>